<svg width="516" height="272" viewBox="0 0 516 272" xmlns="http://www.w3.org/2000/svg" lang="en" xml:lang="en"><rect x="2" y="2" stroke-width="4" rx="10" width="512" height="268" stroke="#bd93f9" fill="#282a36"/><g font-weight="600" font-size="110pt" font-family="Verdana,Geneva,DejaVu Sans,sans-serif" text-rendering="geometricPrecision"><g transform="translate(0, 21)" fill="#f8f8f2"><g transform="translate(15, 0)"><g transform="scale(0.095)"><text x="0" y="132" textLength="3652" lengthAdjust="spacingAndGlyphs">Language Distribution in Public Repositories</text></g></g><g transform="translate(273, 21)"><circle cx="102" cy="102" r="102" fill="#ffffff"/></g><g transform="translate(274, 22)"><g><path fill-rule="evenodd" fill="#DA5B0B" d="M 0.0,101.00000000000001 A 101 101 0 1 1 34.873021068496854 177.34279702363898 L 101,101 Z"/><path fill-rule="evenodd" fill="#3572A5" d="M 34.873021068496854,177.34279702363898 A 101 101 0 0 1 11.269833155309811 147.36266987592563 L 101,101 Z"/><path fill-rule="evenodd" fill="#3178c6" d="M 11.269833155309811,147.36266987592563 A 101 101 0 0 1 1.4468838244897029 118.03458422578464 L 101,101 Z"/><path fill-rule="evenodd" fill="#f1e05a" d="M 1.4468838244897029,118.03458422578464 A 101 101 0 0 1 0.1289942248321978 106.1029593282786 L 101,101 Z"/><path fill-rule="evenodd" fill="#663399" d="M 0.1289942248321978,106.1029593282786 A 101 101 0 0 1 0.019638740830203005 102.99164253006441 L 101,101 Z"/><path fill-rule="evenodd" fill="#e34c26" d="M 0.019638740830203005,102.99164253006441 A 101 101 0 0 1 0.00010171769856981427 101.14334212488002 L 101,101 Z"/><path fill-rule="evenodd" fill="#959da5" d="M 0.00010171769856981427,101.14334212488002 A 101 101 0 0 1 0.0 101.00000000000004 L 101,101 Z"/><animateTransform attributeName="transform" attributeType="XML" type="rotate" from="0 101 101" to="360 101 101" dur="10s" repeatCount="indefinite"/></g></g><g transform="translate(15, 21)"><rect x="0.5" y="0.5" rx="2" width="15" height="15" fill="#DA5B0B" stroke-width="1" stroke="#ffffff"/><text transform="scale(0.095)" x="263" y="132" textLength="2126" lengthAdjust="spacingAndGlyphs">Jupyter Notebook 86.36%</text></g><g transform="translate(15, 42)"><rect x="0.5" y="0.5" rx="2" width="15" height="15" fill="#3572A5" stroke-width="1" stroke="#ffffff"/><text transform="scale(0.095)" x="263" y="132" textLength="1149" lengthAdjust="spacingAndGlyphs">Python 6.05%</text></g><g transform="translate(15, 63)"><rect x="0.5" y="0.5" rx="2" width="15" height="15" fill="#3178c6" stroke-width="1" stroke="#ffffff"/><text transform="scale(0.095)" x="263" y="132" textLength="1462" lengthAdjust="spacingAndGlyphs">TypeScript 4.89%</text></g><g transform="translate(15, 84)"><rect x="0.5" y="0.5" rx="2" width="15" height="15" fill="#f1e05a" stroke-width="1" stroke="#ffffff"/><text transform="scale(0.095)" x="263" y="132" textLength="1412" lengthAdjust="spacingAndGlyphs">JavaScript 1.89%</text></g><g transform="translate(15, 105)"><rect x="0.5" y="0.5" rx="2" width="15" height="15" fill="#663399" stroke-width="1" stroke="#ffffff"/><text transform="scale(0.095)" x="263" y="132" textLength="903" lengthAdjust="spacingAndGlyphs">CSS 0.49%</text></g><g transform="translate(15, 126)"><rect x="0.5" y="0.5" rx="2" width="15" height="15" fill="#e34c26" stroke-width="1" stroke="#ffffff"/><text transform="scale(0.095)" x="263" y="132" textLength="1036" lengthAdjust="spacingAndGlyphs">HTML 0.29%</text></g><g transform="translate(15, 147)"><rect x="0.5" y="0.5" rx="2" width="15" height="15" fill="#959da5" stroke-width="1" stroke="#ffffff"/><text transform="scale(0.095)" x="263" y="132" textLength="1047" lengthAdjust="spacingAndGlyphs">Other 0.02%</text></g></g></g></svg>